<svg xmlns="http://www.w3.org/2000/svg" xmlns:xlink="http://www.w3.org/1999/xlink" width="1311" zoomAndPan="magnify" viewBox="0 0 984 408" height="534" preserveAspectRatio="xMidYMid meet" version="1.0"><defs><g/><clipPath id="d374e6a2f2"><path d="M 0 0 L 338 0 L 338 400.5 L 0 400.5 Z M 0 0 " clip-rule="nonzero"/></clipPath><clipPath id="3b83bfea43"><rect x="0" width="338" y="0" height="401"/></clipPath><clipPath id="e8eba8888e"><path d="M 296 0 L 673 0 L 673 400.5 L 296 400.5 Z M 296 0 " clip-rule="nonzero"/></clipPath><clipPath id="d7b01d03bf"><path d="M 11 0 L 376.960938 0 L 376.960938 400 L 11 400 Z M 11 0 " clip-rule="nonzero"/></clipPath><clipPath id="b6cc0c17e7"><rect x="0" width="377" y="0" height="401"/></clipPath><clipPath id="80c96329e9"><path d="M 654 0 L 983.25 0 L 983.25 400.5 L 654 400.5 Z M 654 0 " clip-rule="nonzero"/></clipPath><clipPath id="ec531718ca"><rect x="0" width="330" y="0" height="401"/></clipPath></defs><g clip-path="url(#d374e6a2f2)"><g><g clip-path="url(#3b83bfea43)"><g fill="#ffffff" fill-opacity="1"><g transform="translate(-9.449584, 392.761791)"><g><path d="M 232.859375 -79.328125 C 246.234375 -79.328125 259.222656 -81.347656 271.828125 -85.390625 C 284.429688 -89.441406 293.6875 -93.332031 299.59375 -97.0625 L 308.453125 -103.125 L 345.796875 -28.46875 C 344.546875 -27.53125 342.832031 -26.285156 340.65625 -24.734375 C 338.476562 -23.179688 333.421875 -20.300781 325.484375 -16.09375 C 317.554688 -11.894531 309.082031 -8.238281 300.0625 -5.125 C 291.039062 -2.019531 279.21875 0.773438 264.59375 3.265625 C 249.96875 5.753906 234.878906 7 219.328125 7 C 183.546875 7 149.632812 -1.785156 117.59375 -19.359375 C 85.550781 -36.941406 59.726562 -61.128906 40.125 -91.921875 C 20.53125 -122.722656 10.734375 -156.015625 10.734375 -191.796875 C 10.734375 -218.859375 16.488281 -244.832031 28 -269.71875 C 39.507812 -294.613281 54.832031 -315.925781 73.96875 -333.65625 C 93.101562 -351.394531 115.425781 -365.550781 140.9375 -376.125 C 166.445312 -386.695312 192.578125 -391.984375 219.328125 -391.984375 C 244.210938 -391.984375 267.15625 -389.03125 288.15625 -383.125 C 309.15625 -377.21875 324.007812 -371.304688 332.71875 -365.390625 L 345.796875 -356.53125 L 308.453125 -281.859375 C 306.273438 -283.722656 303.007812 -285.976562 298.65625 -288.625 C 294.300781 -291.269531 285.585938 -294.769531 272.515625 -299.125 C 259.453125 -303.476562 246.234375 -305.65625 232.859375 -305.65625 C 211.703125 -305.65625 192.722656 -302.234375 175.921875 -295.390625 C 159.128906 -288.546875 145.832031 -279.523438 136.03125 -268.328125 C 126.226562 -257.128906 118.757812 -245.070312 113.625 -232.15625 C 108.5 -219.25 105.9375 -206.109375 105.9375 -192.734375 C 105.9375 -163.484375 116.898438 -137.269531 138.828125 -114.09375 C 160.765625 -90.914062 192.109375 -79.328125 232.859375 -79.328125 Z M 232.859375 -79.328125 "/></g></g></g></g></g></g><g clip-path="url(#e8eba8888e)"><g transform="matrix(1, 0, 0, 1, 296, 0)"><g clip-path="url(#b6cc0c17e7)"><g clip-path="url(#d7b01d03bf)"><g fill="#ffffff" fill-opacity="1"><g transform="translate(0.666033, 392.761791)"><g><path d="M 376.125 -215.59375 L 376.125 -132.0625 C 366.164062 -86.332031 344.382812 -51.722656 310.78125 -28.234375 C 277.1875 -4.742188 239.703125 7 198.328125 7 C 146.367188 7 102.113281 -12.441406 65.5625 -51.328125 C 29.007812 -90.222656 10.734375 -137.203125 10.734375 -192.265625 C 10.734375 -248.265625 28.617188 -295.550781 64.390625 -334.125 C 100.171875 -372.695312 144.816406 -391.984375 198.328125 -391.984375 C 260.859375 -391.984375 310.320312 -370.050781 346.71875 -326.1875 L 289.328125 -263.1875 C 268.796875 -296.164062 240.175781 -312.65625 203.46875 -312.65625 C 176.394531 -312.65625 153.289062 -300.910156 134.15625 -277.421875 C 115.03125 -253.929688 105.46875 -225.546875 105.46875 -192.265625 C 105.46875 -159.597656 115.03125 -131.675781 134.15625 -108.5 C 153.289062 -85.320312 176.394531 -73.734375 203.46875 -73.734375 C 225.863281 -73.734375 245.382812 -80.5 262.03125 -94.03125 C 278.675781 -107.5625 287 -125.53125 287 -147.9375 L 198.328125 -147.9375 L 198.328125 -215.59375 Z M 376.125 -215.59375 "/></g></g></g></g></g></g></g><g clip-path="url(#80c96329e9)"><g transform="matrix(1, 0, 0, 1, 654, 0)"><g clip-path="url(#ec531718ca)"><g fill="#ffffff" fill-opacity="1"><g transform="translate(1.000227, 392.761791)"><g><path d="M 115.734375 -154.46875 L 115.734375 0 L 28 0 L 28 -384.984375 L 115.734375 -384.984375 L 115.734375 -231.46875 L 239.859375 -231.46875 L 239.859375 -384.984375 L 327.59375 -384.984375 L 327.59375 0 L 239.859375 0 L 239.859375 -154.46875 Z M 115.734375 -154.46875 "/></g></g></g></g></g></g></svg>