<svg xmlns="http://www.w3.org/2000/svg" xmlns:xlink="http://www.w3.org/1999/xlink" width="5000" zoomAndPan="magnify" viewBox="0 0 3750 2250.000011" height="3000" preserveAspectRatio="xMidYMid meet" version="1.0"><defs><g/><clipPath id="eb9a6a607f"><path d="M 0.832031 587 L 3725 587 L 3725 1576 L 0.832031 1576 Z M 0.832031 587 " clip-rule="nonzero"/></clipPath><clipPath id="b9cec57526"><rect x="0" width="3725" y="0" height="989"/></clipPath></defs><g clip-path="url(#eb9a6a607f)"><g transform="matrix(1, 0, 0, 1, 0.000000000000000111, 587)"><g clip-path="url(#b9cec57526)"><g fill="#003554" fill-opacity="1"><g transform="translate(-15.606065, 702.83713)"><g><path d="M 196.75 -262.609375 L 196.75 0 L 47.59375 0 L 47.59375 -654.5 L 196.75 -654.5 L 196.75 -393.5 L 407.78125 -393.5 L 407.78125 -654.5 L 556.921875 -654.5 L 556.921875 0 L 407.78125 0 L 407.78125 -262.609375 Z M 196.75 -262.609375 "/></g></g></g><g fill="#003554" fill-opacity="1"><g transform="translate(538.913816, 702.83713)"><g><path d="M 459.359375 -184.0625 L 164.21875 -184.0625 C 164.21875 -155.5 173.472656 -134.34375 191.984375 -120.59375 C 210.503906 -106.84375 230.601562 -99.96875 252.28125 -99.96875 C 275.03125 -99.96875 293.015625 -103.003906 306.234375 -109.078125 C 319.460938 -115.160156 334.535156 -127.195312 351.453125 -145.1875 L 453.015625 -94.40625 C 410.703125 -23.53125 340.351562 11.90625 241.96875 11.90625 C 180.613281 11.90625 127.988281 -9.117188 84.09375 -51.171875 C 40.195312 -93.222656 18.25 -143.863281 18.25 -203.09375 C 18.25 -262.332031 40.195312 -313.109375 84.09375 -355.421875 C 127.988281 -397.734375 180.613281 -418.890625 241.96875 -418.890625 C 306.5 -418.890625 358.992188 -400.242188 399.453125 -362.953125 C 439.910156 -325.671875 460.140625 -272.382812 460.140625 -203.09375 C 460.140625 -193.570312 459.878906 -187.226562 459.359375 -184.0625 Z M 168.1875 -261.8125 L 322.890625 -261.8125 C 319.722656 -282.96875 311.394531 -299.226562 297.90625 -310.59375 C 284.414062 -321.96875 267.09375 -327.65625 245.9375 -327.65625 C 222.664062 -327.65625 204.15625 -321.570312 190.40625 -309.40625 C 176.65625 -297.238281 169.25 -281.375 168.1875 -261.8125 Z M 168.1875 -261.8125 "/></g></g></g><g fill="#003554" fill-opacity="1"><g transform="translate(967.296599, 702.83713)"><g><path d="M 75.359375 -50.375 C 37.285156 -91.894531 18.25 -142.800781 18.25 -203.09375 C 18.25 -263.394531 37.285156 -314.4375 75.359375 -356.21875 C 113.441406 -398 161.835938 -418.890625 220.546875 -418.890625 C 274.492188 -418.890625 318.925781 -401.96875 353.84375 -368.125 L 353.84375 -407 L 494.265625 -407 L 494.265625 0 L 355.421875 0 L 355.421875 -46.015625 L 353.84375 -46.015625 C 318.925781 -7.398438 274.492188 11.90625 220.546875 11.90625 C 161.835938 11.90625 113.441406 -8.851562 75.359375 -50.375 Z M 194.765625 -272.109375 C 176.523438 -254.128906 167.40625 -231.125 167.40625 -203.09375 C 167.40625 -175.0625 176.128906 -152.1875 193.578125 -134.46875 C 211.035156 -116.75 234.046875 -107.890625 262.609375 -107.890625 C 290.109375 -107.890625 312.71875 -116.878906 330.4375 -134.859375 C 348.15625 -152.847656 357.015625 -175.59375 357.015625 -203.09375 C 357.015625 -231.125 347.890625 -254.128906 329.640625 -272.109375 C 311.390625 -290.097656 289.046875 -299.09375 262.609375 -299.09375 C 235.628906 -299.09375 213.015625 -290.097656 194.765625 -272.109375 Z M 194.765625 -272.109375 "/></g></g></g><g fill="#003554" fill-opacity="1"><g transform="translate(1459.144551, 702.83713)"><g><path d="M 47.59375 0 L 47.59375 -407 L 188.03125 -407 L 188.03125 -348.28125 L 189.609375 -348.28125 C 190.671875 -350.394531 192.390625 -353.039062 194.765625 -356.21875 C 197.148438 -359.394531 202.304688 -364.945312 210.234375 -372.875 C 218.171875 -380.8125 226.632812 -387.953125 235.625 -394.296875 C 244.613281 -400.640625 256.25 -406.320312 270.53125 -411.34375 C 284.8125 -416.375 299.359375 -418.890625 314.171875 -418.890625 C 329.503906 -418.890625 344.578125 -416.773438 359.390625 -412.546875 C 374.203125 -408.316406 385.046875 -404.085938 391.921875 -399.859375 L 403.03125 -393.5 L 344.3125 -274.5 C 326.863281 -289.3125 302.535156 -296.71875 271.328125 -296.71875 C 254.398438 -296.71875 239.851562 -293.015625 227.6875 -285.609375 C 215.53125 -278.203125 206.9375 -269.207031 201.90625 -258.625 C 196.882812 -248.050781 193.316406 -239.0625 191.203125 -231.65625 C 189.085938 -224.25 188.03125 -218.429688 188.03125 -214.203125 L 188.03125 0 Z M 47.59375 0 "/></g></g></g><g fill="#003554" fill-opacity="1"><g transform="translate(1804.229235, 702.83713)"><g><path d="M 71.40625 -407 L 71.40625 -558.515625 L 211.828125 -558.515625 L 211.828125 -407 L 297.515625 -407 L 297.515625 -299.890625 L 211.828125 -299.890625 L 211.828125 -170.578125 C 211.828125 -133.023438 222.40625 -114.25 243.5625 -114.25 C 248.851562 -114.25 254.40625 -115.304688 260.21875 -117.421875 C 266.039062 -119.535156 270.535156 -121.648438 273.703125 -123.765625 L 278.46875 -126.9375 L 313.375 -13.484375 C 283.226562 3.441406 248.847656 11.90625 210.234375 11.90625 C 183.796875 11.90625 161.054688 7.28125 142.015625 -1.96875 C 122.972656 -11.226562 108.554688 -23.660156 98.765625 -39.265625 C 88.984375 -54.867188 81.976562 -71.265625 77.75 -88.453125 C 73.519531 -105.648438 71.40625 -124.03125 71.40625 -143.59375 L 71.40625 -299.890625 L 12.6875 -299.890625 L 12.6875 -407 Z M 71.40625 -407 "/></g></g></g><g fill="#0085a0" fill-opacity="1"><g transform="translate(2067.726599, 702.83713)"><g><path d="M 47.59375 0 L 47.59375 -682.265625 L 188.03125 -682.265625 L 188.03125 0 Z M 47.59375 0 "/></g></g></g><g fill="#0085a0" fill-opacity="1"><g transform="translate(2253.354839, 702.83713)"><g><path d="M 75.359375 -50.375 C 37.285156 -91.894531 18.25 -142.800781 18.25 -203.09375 C 18.25 -263.394531 37.285156 -314.4375 75.359375 -356.21875 C 113.441406 -398 161.835938 -418.890625 220.546875 -418.890625 C 274.492188 -418.890625 318.925781 -401.96875 353.84375 -368.125 L 353.84375 -407 L 494.265625 -407 L 494.265625 0 L 355.421875 0 L 355.421875 -46.015625 L 353.84375 -46.015625 C 318.925781 -7.398438 274.492188 11.90625 220.546875 11.90625 C 161.835938 11.90625 113.441406 -8.851562 75.359375 -50.375 Z M 194.765625 -272.109375 C 176.523438 -254.128906 167.40625 -231.125 167.40625 -203.09375 C 167.40625 -175.0625 176.128906 -152.1875 193.578125 -134.46875 C 211.035156 -116.75 234.046875 -107.890625 262.609375 -107.890625 C 290.109375 -107.890625 312.71875 -116.878906 330.4375 -134.859375 C 348.15625 -152.847656 357.015625 -175.59375 357.015625 -203.09375 C 357.015625 -231.125 347.890625 -254.128906 329.640625 -272.109375 C 311.390625 -290.097656 289.046875 -299.09375 262.609375 -299.09375 C 235.628906 -299.09375 213.015625 -290.097656 194.765625 -272.109375 Z M 194.765625 -272.109375 "/></g></g></g><g fill="#0085a0" fill-opacity="1"><g transform="translate(2745.202791, 702.83713)"><g><path d="M 47.59375 0 L 47.59375 -407 L 188.03125 -407 L 188.03125 -364.15625 L 189.609375 -364.15625 C 226.109375 -400.644531 264.984375 -418.890625 306.234375 -418.890625 C 326.335938 -418.890625 346.304688 -416.242188 366.140625 -410.953125 C 385.972656 -405.671875 405.007812 -397.472656 423.25 -386.359375 C 441.5 -375.253906 456.3125 -359.519531 467.6875 -339.15625 C 479.0625 -318.789062 484.75 -295.125 484.75 -268.15625 L 484.75 0 L 344.3125 0 L 344.3125 -230.078125 C 344.3125 -251.234375 337.566406 -269.742188 324.078125 -285.609375 C 310.597656 -301.472656 293.015625 -309.40625 271.328125 -309.40625 C 250.171875 -309.40625 231 -301.207031 213.8125 -284.8125 C 196.625 -268.414062 188.03125 -250.171875 188.03125 -230.078125 L 188.03125 0 Z M 47.59375 0 "/></g></g></g><g fill="#0085a0" fill-opacity="1"><g transform="translate(3219.597733, 702.83713)"><g><path d="M 75.359375 -50.375 C 37.285156 -91.894531 18.25 -142.800781 18.25 -203.09375 C 18.25 -263.394531 37.285156 -314.4375 75.359375 -356.21875 C 113.441406 -398 161.835938 -418.890625 220.546875 -418.890625 C 274.492188 -418.890625 318.925781 -401.96875 353.84375 -368.125 L 353.84375 -682.265625 L 494.265625 -682.265625 L 494.265625 0 L 355.421875 0 L 355.421875 -46.015625 L 353.84375 -46.015625 C 318.925781 -7.398438 274.492188 11.90625 220.546875 11.90625 C 161.835938 11.90625 113.441406 -8.851562 75.359375 -50.375 Z M 194.765625 -272.109375 C 176.523438 -254.128906 167.40625 -231.125 167.40625 -203.09375 C 167.40625 -175.0625 176.128906 -152.1875 193.578125 -134.46875 C 211.035156 -116.75 234.046875 -107.890625 262.609375 -107.890625 C 290.109375 -107.890625 312.71875 -116.878906 330.4375 -134.859375 C 348.15625 -152.847656 357.015625 -175.59375 357.015625 -203.09375 C 357.015625 -231.125 347.890625 -254.128906 329.640625 -272.109375 C 311.390625 -290.097656 289.046875 -299.09375 262.609375 -299.09375 C 235.628906 -299.09375 213.015625 -290.097656 194.765625 -272.109375 Z M 194.765625 -272.109375 "/></g></g></g></g></g></g></svg>